<svg id="visual" viewBox="0 0 900 675" width="900" height="675" xmlns="http://www.w3.org/2000/svg" xmlns:xlink="http://www.w3.org/1999/xlink" version="1.1"><path d="M561 0L549.2 22.5C537.3 45 513.7 90 500.7 135C487.7 180 485.3 225 485 270C484.7 315 486.3 360 499.8 405C513.3 450 538.7 495 542.8 540C547 585 530 630 521.5 652.5L513 675L0 675L0 652.5C0 630 0 585 0 540C0 495 0 450 0 405C0 360 0 315 0 270C0 225 0 180 0 135C0 90 0 45 0 22.5L0 0Z" fill="#7aa2e3"></path><path d="M454 0L448.5 22.5C443 45 432 90 430.2 135C428.3 180 435.7 225 432.5 270C429.3 315 415.7 360 411.8 405C408 450 414 495 414.7 540C415.3 585 410.7 630 408.3 652.5L406 675L0 675L0 652.5C0 630 0 585 0 540C0 495 0 450 0 405C0 360 0 315 0 270C0 225 0 180 0 135C0 90 0 45 0 22.5L0 0Z" fill="#69b7ea"></path><path d="M367 0L364.2 22.5C361.3 45 355.7 90 345.8 135C336 180 322 225 315.8 270C309.7 315 311.3 360 314.2 405C317 450 321 495 325.8 540C330.7 585 336.3 630 339.2 652.5L342 675L0 675L0 652.5C0 630 0 585 0 540C0 495 0 450 0 405C0 360 0 315 0 270C0 225 0 180 0 135C0 90 0 45 0 22.5L0 0Z" fill="#68c9ea"></path><path d="M245 0L240.5 22.5C236 45 227 90 226.2 135C225.3 180 232.7 225 231.5 270C230.3 315 220.7 360 215.5 405C210.3 450 209.7 495 208.3 540C207 585 205 630 204 652.5L203 675L0 675L0 652.5C0 630 0 585 0 540C0 495 0 450 0 405C0 360 0 315 0 270C0 225 0 180 0 135C0 90 0 45 0 22.5L0 0Z" fill="#7ad9e6"></path><path d="M133 0L125 22.5C117 45 101 90 104.8 135C108.7 180 132.3 225 140.5 270C148.7 315 141.3 360 134.8 405C128.3 450 122.7 495 122.7 540C122.7 585 128.3 630 131.2 652.5L134 675L0 675L0 652.5C0 630 0 585 0 540C0 495 0 450 0 405C0 360 0 315 0 270C0 225 0 180 0 135C0 90 0 45 0 22.5L0 0Z" fill="#97e7e1"></path></svg>